<svg width="162" height="32" viewBox="0 0 162 32" fill="none" xmlns="http://www.w3.org/2000/svg">
  <g clip-path="url(#clip0_1494_316)">
    <path fill-rule="evenodd" clip-rule="evenodd"
      d="M51.2155 23.5758V8.62842H48.9243V16.8297C48.9243 17.7537 48.9433 18.4787 48.9813 19.0009C49.0193 19.5243 49.0756 20.0263 49.151 20.5074C48.8502 20.1205 48.5576 19.7664 48.2722 19.4462C47.9862 19.1255 47.7173 18.8537 47.464 18.6265L36.3405 8.62842H34.7793V23.5758H37.071V14.7658C37.071 14.0683 37.0568 13.4626 37.0277 12.9487C36.9992 12.4349 36.9571 11.952 36.9007 11.4995C37.1725 11.9615 37.5897 12.4462 38.1516 12.9559C38.265 13.059 38.348 13.1347 38.4044 13.1818L49.8233 23.5758H51.2155Z"
      fill="#FFF" />
    <path fill-rule="evenodd" clip-rule="evenodd"
      d="M68.3044 21.7878H58.2076V18.1018H64.2343V16.2692H58.2076V13.1412H68.1935V11.3086H55.8945V23.5757H68.3044V21.7878Z"
      fill="#FFF" />
    <path fill-rule="evenodd" clip-rule="evenodd"
      d="M71.6973 13.1411H77.4575V23.5755H79.7486V13.1411H85.5521V11.3091H71.6973V13.1411Z"
      fill="#fff" />
    <path fill-rule="evenodd" clip-rule="evenodd"
      d="M102.055 20.6759V19.2326L99.7424 18.7945V21.721H91.2246V13.1411H99.7424V15.7559L102.055 15.3755V14.2232C102.055 13.1018 101.845 12.3357 101.428 11.925C101.009 11.5142 100.217 11.3092 99.054 11.3092H91.8851C90.7291 11.3092 89.9446 11.5107 89.5316 11.9113C89.1174 12.3125 88.9121 13.0827 88.9121 14.2232V20.6759C88.9121 21.8265 89.1156 22.5973 89.5245 22.989C89.9334 23.3807 90.7202 23.5756 91.8851 23.5756H99.054C100.217 23.5756 101.009 23.3735 101.428 22.9675C101.845 22.561 102.055 21.7973 102.055 20.6759Z"
      fill="#fff" />
    <path fill-rule="evenodd" clip-rule="evenodd"
      d="M108.885 18.1021H118.605V23.576H120.917V11.3322H118.605V16.2474H108.885V11.3322H106.572V23.576H108.885V18.1021Z"
      fill="#FFF" />
    <path fill-rule="evenodd" clip-rule="evenodd"
      d="M138.007 21.7878H127.91V18.1018H133.936V16.2692H127.91V13.1412H137.895V11.3086H125.598V23.5757H138.007V21.7878Z"
      fill="#FFF" />
    <path fill-rule="evenodd" clip-rule="evenodd"
      d="M157.213 23.5758L150.344 17.0044L155.961 11.3087H153.118L149.078 15.762L144.672 11.3087H141.547L147.782 17.3013L141.645 23.5758H144.616L149.05 18.6009L153.976 23.5758H157.213Z"
      fill="#fff" />
    <path fill-rule="evenodd" clip-rule="evenodd"
      d="M159.903 21.9073H160.085C160.297 21.9073 160.468 21.8364 160.468 21.6641C160.468 21.512 160.357 21.4107 160.115 21.4107C160.014 21.4107 159.944 21.4208 159.903 21.431V21.9073ZM159.893 22.8498H159.51V21.1877C159.661 21.1573 159.873 21.1371 160.145 21.1371C160.459 21.1371 160.599 21.1877 160.72 21.2587C160.811 21.3296 160.882 21.4614 160.882 21.6229C160.882 21.806 160.741 21.9472 160.539 22.0086V22.0289C160.7 22.0897 160.791 22.2113 160.841 22.4343C160.892 22.6877 160.922 22.789 160.962 22.8498H160.549C160.498 22.789 160.468 22.637 160.418 22.4438C160.387 22.262 160.287 22.1809 160.075 22.1809H159.893V22.8498ZM158.875 21.9782C158.875 22.7175 159.42 23.3059 160.166 23.3059C160.892 23.3059 161.426 22.7175 161.426 21.9884C161.426 21.2485 160.892 20.6506 160.155 20.6506C159.42 20.6506 158.875 21.2485 158.875 21.9782ZM161.85 21.9782C161.85 22.9202 161.114 23.66 160.155 23.66C159.207 23.66 158.451 22.9202 158.451 21.9782C158.451 21.056 159.207 20.3162 160.155 20.3162C161.114 20.3162 161.85 21.056 161.85 21.9782Z"
      fill="#fff" />
    <path fill-rule="evenodd" clip-rule="evenodd"
      d="M16.606 23.8088C12.5465 23.8088 12.2012 14.8301 9.64535 14.8301C7.90489 14.8301 4.15634 22.4537 1.44922 31.5838C2.59331 29.2302 3.42704 28.0498 4.33495 26.7234C6.70917 28.9142 9.86372 30.2651 13.3429 30.2651C20.7118 30.2651 26.685 24.2654 26.685 16.8624C26.685 14.6465 26.1355 12.5635 25.1855 10.7226C25.5059 8.06377 25.5415 5.8878 25.4276 4.96973C23.4931 13.7105 19.8929 23.8088 16.606 23.8088Z"
      fill="#7BC466" />
    <path fill-rule="evenodd" clip-rule="evenodd"
      d="M21.6504 6.40539C19.3694 4.57281 16.4902 3.4592 13.3427 3.4592C5.97442 3.4592 0 9.45949 0 16.8625C0 18.9532 0.507363 20.9128 1.35831 22.675C1.17079 24.7246 1.1613 26.3521 1.25624 27.114C3.18956 18.372 7.25143 8.85499 10.5377 8.85499C14.5984 8.85499 14.8458 18.1788 17.5002 18.1788C19.2394 18.1788 22.5281 9.63118 25.234 0.500488C23.8069 3.43714 22.8598 4.55791 21.6504 6.40539Z"
      fill="#7BC466" />
  </g>
  <defs>
    <clipPath id="clip0_1494_316">
      <rect width="162" height="31" fill="white" transform="translate(0 0.5)" />
    </clipPath>
  </defs>
</svg>