<?xml version="1.0" encoding="UTF-8" standalone="no"?>
<svg width="512" height="512" viewBox="0 0 512 512" fill="none" xmlns="http://www.w3.org/2000/svg">
  <circle cx="256" cy="256" r="240" fill="#7AC142"/>
  <path d="M456 256C456 367.04 367.04 456 256 456C144.96 456 56 367.04 56 256C56 144.96 144.96 56 256 56C367.04 56 456 144.96 456 256Z" fill="#7AC142"/>
  <path fill-rule="evenodd" clip-rule="evenodd" d="M79.8339 460.916C137.381 510.301 194.928 511.236 256 511.236C317.072 511.236 378.145 468.16 446.924 406.67C447.748 405.844 448.573 405.019 449.399 404.195C465.632 388.008 481.225 372.14 495.631 357.715C496.856 356.49 498.082 355.266 499.307 354.041C500.534 352.814 502.478 350.869 505.141 348.206C417.5 495 244.5 443.5 105.5 372C-33.5 300.5 22.7882 411.94 79.8339 460.916Z" fill="#7AC142"/>
  <path fill-rule="evenodd" clip-rule="evenodd" d="M60.4702 196.037C60.4702 196.037 51.8806 135.63 114.862 72.6489C177.843 9.66751 259.983 16.5294 259.983 16.5294C259.983 16.5294 194.574 54.7254 155.485 93.8147C116.396 132.904 60.4702 196.037 60.4702 196.037Z" fill="#7AC142"/>
  <path d="M158.5 153.5C158.5 153.5 271.43 174.859 319.5 225.5C366 274.5 370.456 373.597 370.456 373.597C370.456 373.597 326.993 302.323 286.998 267.497C246.394 232.128 158.5 153.5 158.5 153.5Z" fill="white"/>
</svg>
